<?xml version="1.0" encoding="UTF-8" standalone="no"?>
<!DOCTYPE svg PUBLIC "-//W3C//DTD SVG 1.1//EN"
 "http://www.w3.org/Graphics/SVG/1.1/DTD/svg11.dtd">
<!-- Generated by graphviz version 5.0.0 (20220707.1540)
 -->
<!-- Title: dependencies Pages: 1 -->
<svg width="302pt" height="174pt"
 viewBox="0.00 0.00 302.00 173.80" xmlns="http://www.w3.org/2000/svg" xmlns:xlink="http://www.w3.org/1999/xlink">
<g id="graph0" class="graph" transform="scale(1 1) rotate(0) translate(4 169.8)">
<title>dependencies</title>
<polygon fill="white" stroke="transparent" points="-4,4 -4,-169.8 298,-169.8 298,4 -4,4"/>
<text text-anchor="middle" x="147" y="-8.2" font-family="sans-serif" font-size="14.00">dependencies</text>
<g id="clust1" class="cluster">
<title>cluster_ApplicationModule</title>
<polygon fill="none" stroke="black" stroke-dasharray="1,5" points="8,-32.8 8,-157.8 286,-157.8 286,-32.8 8,-32.8"/>
</g>
<g id="clust3" class="cluster">
<title>cluster_ApplicationModule_imports</title>
<polygon fill="none" stroke="black" points="16,-40.8 16,-92.8 278,-92.8 278,-40.8 16,-40.8"/>
</g>
<!-- CommonModule -->
<g id="node1" class="node">
<title>CommonModule</title>
<polygon fill="#8dd3c7" stroke="black" points="269.67,-84.8 266.67,-88.8 245.67,-88.8 242.67,-84.8 158.33,-84.8 158.33,-48.8 269.67,-48.8 269.67,-84.8"/>
<text text-anchor="middle" x="214" y="-62.6" font-family="Times,serif" font-size="14.00">CommonModule</text>
</g>
<!-- ApplicationModule -->
<g id="node3" class="node">
<title>ApplicationModule</title>
<polygon fill="#8dd3c7" stroke="black" points="210.65,-149.8 207.65,-153.8 186.65,-153.8 183.65,-149.8 85.35,-149.8 85.35,-113.8 210.65,-113.8 210.65,-149.8"/>
<text text-anchor="middle" x="148" y="-127.6" font-family="Times,serif" font-size="14.00">ApplicationModule</text>
</g>
<!-- CommonModule&#45;&gt;ApplicationModule -->
<g id="edge1" class="edge">
<title>CommonModule&#45;&gt;ApplicationModule</title>
<path fill="none" stroke="black" d="M184.49,-84.91C184.49,-84.91 184.49,-103.79 184.49,-103.79"/>
<polygon fill="black" stroke="black" points="180.99,-103.79 184.49,-113.79 187.99,-103.79 180.99,-103.79"/>
</g>
<!-- PassengerModule -->
<g id="node2" class="node">
<title>PassengerModule</title>
<polygon fill="#8dd3c7" stroke="black" points="139.54,-84.8 136.54,-88.8 115.54,-88.8 112.54,-84.8 24.46,-84.8 24.46,-48.8 139.54,-48.8 139.54,-84.8"/>
<text text-anchor="middle" x="82" y="-62.6" font-family="Times,serif" font-size="14.00">PassengerModule</text>
</g>
<!-- PassengerModule&#45;&gt;ApplicationModule -->
<g id="edge2" class="edge">
<title>PassengerModule&#45;&gt;ApplicationModule</title>
<path fill="none" stroke="black" d="M112.47,-84.91C112.47,-84.91 112.47,-103.79 112.47,-103.79"/>
<polygon fill="black" stroke="black" points="108.97,-103.79 112.47,-113.79 115.97,-103.79 108.97,-103.79"/>
</g>
</g>
</svg>
