<?xml version="1.0" encoding="UTF-8" standalone="no"?>
<!DOCTYPE svg PUBLIC "-//W3C//DTD SVG 1.1//EN"
 "http://www.w3.org/Graphics/SVG/1.1/DTD/svg11.dtd">
<!-- Generated by graphviz version 5.0.0 (20220707.1540)
 -->
<!-- Title: dependencies Pages: 1 -->
<svg width="350pt" height="174pt"
 viewBox="0.00 0.00 350.00 173.80" xmlns="http://www.w3.org/2000/svg" xmlns:xlink="http://www.w3.org/1999/xlink">
<g id="graph0" class="graph" transform="scale(1 1) rotate(0) translate(4 169.8)">
<title>dependencies</title>
<polygon fill="white" stroke="transparent" points="-4,4 -4,-169.8 346,-169.8 346,4 -4,4"/>
<text text-anchor="middle" x="171" y="-8.2" font-family="sans-serif" font-size="14.00">dependencies</text>
<g id="clust1" class="cluster">
<title>cluster_PassengerModule</title>
<polygon fill="none" stroke="black" stroke-dasharray="1,5" points="8,-32.8 8,-157.8 334,-157.8 334,-32.8 8,-32.8"/>
</g>
<g id="clust3" class="cluster">
<title>cluster_PassengerModule_imports</title>
<polygon fill="none" stroke="black" points="198,-40.8 198,-92.8 326,-92.8 326,-40.8 198,-40.8"/>
</g>
<g id="clust6" class="cluster">
<title>cluster_PassengerModule_providers</title>
<polygon fill="none" stroke="black" points="16,-40.8 16,-92.8 190,-92.8 190,-40.8 16,-40.8"/>
</g>
<!-- CommonModule -->
<g id="node1" class="node">
<title>CommonModule</title>
<polygon fill="#8dd3c7" stroke="black" points="317.67,-84.8 314.67,-88.8 293.67,-88.8 290.67,-84.8 206.33,-84.8 206.33,-48.8 317.67,-48.8 317.67,-84.8"/>
<text text-anchor="middle" x="262" y="-62.6" font-family="Times,serif" font-size="14.00">CommonModule</text>
</g>
<!-- PassengerModule -->
<g id="node2" class="node">
<title>PassengerModule</title>
<polygon fill="#8dd3c7" stroke="black" points="239.54,-149.8 236.54,-153.8 215.54,-153.8 212.54,-149.8 124.46,-149.8 124.46,-113.8 239.54,-113.8 239.54,-149.8"/>
<text text-anchor="middle" x="182" y="-127.6" font-family="Times,serif" font-size="14.00">PassengerModule</text>
</g>
<!-- CommonModule&#45;&gt;PassengerModule -->
<g id="edge1" class="edge">
<title>CommonModule&#45;&gt;PassengerModule</title>
<path fill="none" stroke="black" d="M222.97,-84.91C222.97,-84.91 222.97,-103.79 222.97,-103.79"/>
<polygon fill="black" stroke="black" points="219.47,-103.79 222.97,-113.79 226.47,-103.79 219.47,-103.79"/>
</g>
<!-- PassengerService -->
<g id="node3" class="node">
<title>PassengerService</title>
<ellipse fill="#fdb462" stroke="black" cx="103" cy="-66.8" rx="78.72" ry="18"/>
<text text-anchor="middle" x="103" y="-62.6" font-family="Times,serif" font-size="14.00">PassengerService</text>
</g>
<!-- PassengerService&#45;&gt;PassengerModule -->
<g id="edge2" class="edge">
<title>PassengerService&#45;&gt;PassengerModule</title>
<path fill="none" stroke="black" d="M152.92,-80.9C152.92,-80.9 152.92,-103.52 152.92,-103.52"/>
<polygon fill="black" stroke="black" points="149.42,-103.52 152.92,-113.52 156.42,-103.52 149.42,-103.52"/>
</g>
</g>
</svg>
