<?xml version="1.0" encoding="UTF-8" standalone="no"?>
<!DOCTYPE svg PUBLIC "-//W3C//DTD SVG 1.1//EN"
 "http://www.w3.org/Graphics/SVG/1.1/DTD/svg11.dtd">
<!-- Generated by graphviz version 5.0.0 (20220707.1540)
 -->
<!-- Title: dependencies Pages: 1 -->
<svg width="808pt" height="250pt"
 viewBox="0.00 0.00 808.00 249.80" xmlns="http://www.w3.org/2000/svg" xmlns:xlink="http://www.w3.org/1999/xlink">
<g id="graph0" class="graph" transform="scale(1 1) rotate(0) translate(4 245.8)">
<title>dependencies</title>
<polygon fill="white" stroke="transparent" points="-4,4 -4,-245.8 804,-245.8 804,4 -4,4"/>
<text text-anchor="middle" x="400" y="-8.2" font-family="sans-serif" font-size="14.00">dependencies</text>
<g id="clust1" class="cluster">
<title>cluster_ApplicationModule</title>
<polygon fill="none" stroke="black" stroke-dasharray="1,5" points="206,-32.8 206,-233.8 366,-233.8 366,-32.8 206,-32.8"/>
</g>
<g id="clust3" class="cluster">
<title>cluster_ApplicationModule_imports</title>
<polygon fill="none" stroke="black" points="214,-40.8 214,-168.8 346,-168.8 346,-40.8 214,-40.8"/>
</g>
<g id="clust7" class="cluster">
<title>cluster_CommonModule</title>
<polygon fill="none" stroke="black" stroke-dasharray="1,5" points="374,-108.8 374,-176.8 792,-176.8 792,-108.8 374,-108.8"/>
</g>
<g id="clust10" class="cluster">
<title>cluster_CommonModule_exports</title>
<polygon fill="none" stroke="black" points="544,-116.8 544,-168.8 784,-168.8 784,-116.8 544,-116.8"/>
</g>
<g id="clust12" class="cluster">
<title>cluster_CommonModule_providers</title>
<polygon fill="none" stroke="black" points="382,-116.8 382,-168.8 536,-168.8 536,-116.8 382,-116.8"/>
</g>
<g id="clust13" class="cluster">
<title>cluster_PassengerModule</title>
<polygon fill="none" stroke="black" stroke-dasharray="1,5" points="8,-32.8 8,-100.8 198,-100.8 198,-32.8 8,-32.8"/>
</g>
<g id="clust18" class="cluster">
<title>cluster_PassengerModule_providers</title>
<polygon fill="none" stroke="black" points="16,-40.8 16,-92.8 190,-92.8 190,-40.8 16,-40.8"/>
</g>
<!-- CommonModule -->
<g id="node1" class="node">
<title>CommonModule</title>
<polygon fill="#8dd3c7" stroke="black" points="337.67,-84.8 334.67,-88.8 313.67,-88.8 310.67,-84.8 226.33,-84.8 226.33,-48.8 337.67,-48.8 337.67,-84.8"/>
<text text-anchor="middle" x="282" y="-62.6" font-family="Times,serif" font-size="14.00">CommonModule</text>
</g>
<!-- PassengerModule -->
<g id="node2" class="node">
<title>PassengerModule</title>
<polygon fill="#8dd3c7" stroke="black" points="337.54,-160.8 334.54,-164.8 313.54,-164.8 310.54,-160.8 222.46,-160.8 222.46,-124.8 337.54,-124.8 337.54,-160.8"/>
<text text-anchor="middle" x="280" y="-138.6" font-family="Times,serif" font-size="14.00">PassengerModule</text>
</g>
<!-- CommonModule&#45;&gt;PassengerModule -->
<g id="edge6" class="edge">
<title>CommonModule&#45;&gt;PassengerModule</title>
<path fill="none" stroke="black" d="M281.97,-84.81C281.97,-84.81 281.97,-114.65 281.97,-114.65"/>
<polygon fill="black" stroke="black" points="278.47,-114.65 281.97,-124.65 285.47,-114.65 278.47,-114.65"/>
</g>
<!-- ApplicationModule -->
<g id="node3" class="node">
<title>ApplicationModule</title>
<polygon fill="#8dd3c7" stroke="black" points="349.65,-225.8 346.65,-229.8 325.65,-229.8 322.65,-225.8 224.35,-225.8 224.35,-189.8 349.65,-189.8 349.65,-225.8"/>
<text text-anchor="middle" x="287" y="-203.6" font-family="Times,serif" font-size="14.00">ApplicationModule</text>
</g>
<!-- CommonModule&#45;&gt;ApplicationModule -->
<g id="edge1" class="edge">
<title>CommonModule&#45;&gt;ApplicationModule</title>
<path fill="none" stroke="black" d="M337.67,-77.8C341.47,-77.8 343.83,-77.8 343.83,-77.8 343.83,-77.8 343.83,-179.72 343.83,-179.72"/>
<polygon fill="black" stroke="black" points="340.33,-179.72 343.83,-189.72 347.33,-179.72 340.33,-179.72"/>
</g>
<!-- LogInterceptor  -->
<g id="node4" class="node">
<title>LogInterceptor </title>
<polygon fill="#fb8072" stroke="black" points="775.96,-160.8 672.04,-160.8 672.04,-124.8 775.96,-124.8 775.96,-160.8"/>
<text text-anchor="middle" x="724" y="-138.6" font-family="Times,serif" font-size="14.00">LogInterceptor </text>
</g>
<!-- CommonModule&#45;&gt;LogInterceptor  -->
<g id="edge3" class="edge">
<title>CommonModule&#45;&gt;LogInterceptor </title>
<path fill="none" stroke="black" stroke-dasharray="5,2" d="M337.98,-56.8C456.92,-56.8 724,-56.8 724,-56.8 724,-56.8 724,-114.56 724,-114.56"/>
<polygon fill="black" stroke="black" points="720.5,-114.56 724,-124.56 727.5,-114.56 720.5,-114.56"/>
</g>
<!-- LoggerService  -->
<g id="node5" class="node">
<title>LoggerService </title>
<polygon fill="#fb8072" stroke="black" points="653.91,-160.8 552.09,-160.8 552.09,-124.8 653.91,-124.8 653.91,-160.8"/>
<text text-anchor="middle" x="603" y="-138.6" font-family="Times,serif" font-size="14.00">LoggerService </text>
</g>
<!-- CommonModule&#45;&gt;LoggerService  -->
<g id="edge4" class="edge">
<title>CommonModule&#45;&gt;LoggerService </title>
<path fill="none" stroke="black" stroke-dasharray="5,2" d="M337.91,-63.8C429.88,-63.8 603,-63.8 603,-63.8 603,-63.8 603,-114.48 603,-114.48"/>
<polygon fill="black" stroke="black" points="599.5,-114.48 603,-124.48 606.5,-114.48 599.5,-114.48"/>
</g>
<!-- PassengerModule&#45;&gt;ApplicationModule -->
<g id="edge2" class="edge">
<title>PassengerModule&#45;&gt;ApplicationModule</title>
<path fill="none" stroke="black" d="M280.97,-160.91C280.97,-160.91 280.97,-179.79 280.97,-179.79"/>
<polygon fill="black" stroke="black" points="277.47,-179.79 280.97,-189.79 284.47,-179.79 277.47,-179.79"/>
</g>
<!-- LogInterceptor -->
<g id="node6" class="node">
<title>LogInterceptor</title>
<ellipse fill="#fdb462" stroke="black" cx="459" cy="-142.8" rx="68.9" ry="18"/>
<text text-anchor="middle" x="459" y="-138.6" font-family="Times,serif" font-size="14.00">LogInterceptor</text>
</g>
<!-- LogInterceptor&#45;&gt;CommonModule -->
<g id="edge5" class="edge">
<title>LogInterceptor&#45;&gt;CommonModule</title>
<path fill="none" stroke="black" d="M459,-124.63C459,-103.3 459,-70.8 459,-70.8 459,-70.8 348,-70.8 348,-70.8"/>
<polygon fill="black" stroke="black" points="348,-67.3 338,-70.8 348,-74.3 348,-67.3"/>
</g>
<!-- PassengerService -->
<g id="node7" class="node">
<title>PassengerService</title>
<ellipse fill="#fdb462" stroke="black" cx="103" cy="-66.8" rx="78.72" ry="18"/>
<text text-anchor="middle" x="103" y="-62.6" font-family="Times,serif" font-size="14.00">PassengerService</text>
</g>
<!-- PassengerService&#45;&gt;PassengerModule -->
<g id="edge7" class="edge">
<title>PassengerService&#45;&gt;PassengerModule</title>
<path fill="none" stroke="black" d="M103,-84.81C103,-107.29 103,-142.8 103,-142.8 103,-142.8 212.04,-142.8 212.04,-142.8"/>
<polygon fill="black" stroke="black" points="212.04,-146.3 222.04,-142.8 212.04,-139.3 212.04,-146.3"/>
</g>
</g>
</svg>
